<?xml version="1.0" encoding="utf-8"?>
<!-- Generator: Adobe Illustrator 26.0.3, SVG Export Plug-In . SVG Version: 6.00 Build 0)  -->
<svg version="1.1" id="Layer_1" xmlns="http://www.w3.org/2000/svg" xmlns:xlink="http://www.w3.org/1999/xlink" x="0px" y="0px"
	 viewBox="0 0 197.6 141.2" style="enable-background:new 0 0 197.6 141.2;" xml:space="preserve">
<g>
	<path d="M0,25.3c5.3,4,10.2,7.7,15.1,11.4c20.9,15.9,41.7,31.7,62.6,47.6c12.6,9.6,30.1,9.5,42.7-0.2
		c21.2-16.3,42.2-32.8,63.3-49.3c4.5-3.5,9.1-7.1,13.9-10.8c0,0.9,0.1,1.4,0.1,2c0,31.4,0,62.8,0,94.2c0,11.6-9.4,21.1-21,21.1
		c-51.9,0-103.8,0-155.7,0c-11.5,0-21-9.4-21-20.8c0-31.1,0-62.1,0-93.2C0,26.7,0,26.2,0,25.3z"/>
	<path d="M3.2,10C7.6,3.6,13.3,0,20.9,0c52,0,104,0,156,0c7,0,12.6,3.2,16.9,8.9c-4.1,3.2-8.1,6.4-12.2,9.5
		c-22.9,17.9-45.9,35.7-68.8,53.6c-9,7-18.9,7-27.9,0.1C58.3,51.9,31.7,31.7,5.1,11.4C4.5,11,3.9,10.6,3.2,10z"/>
</g>
<path d="M591.4,370.3c0.2-55,45.2-99.9,100-99.8c55,0.2,100,45.2,99.8,100c-0.2,55-45.2,99.9-100,99.8
	C636.2,470.1,591.2,425,591.4,370.3z M659.3,376.4c0.4,13.6,1.9,26.7,4.9,39.6c0.3,1.5,1.2,1.6,2.5,1.6c16.4,0,32.8,0,49.2,0
	c1.7,0,2.4-0.7,2.7-2.2c1.4-9.7,3-19.3,4.2-29c0.4-3.3,0.1-6.7,0.1-10.1C701.8,376.4,680.7,376.4,659.3,376.4z M723.3,364.3
	c-0.4-13.5-1.9-26.6-4.8-39.5c-0.4-1.6-1.3-1.8-2.7-1.8c-16.3,0-32.6,0.1-48.9,0c-1.8,0-2.6,0.6-2.8,2.3c-1.2,7.5-2.7,14.9-3.6,22.4
	c-0.7,5.4-0.8,11-1.2,16.6C680.7,364.3,701.9,364.3,723.3,364.3z M731.2,323.1c1.6,13.9,3.2,27.5,4.8,41.2c14,0,28.3,0,42.6,0
	c0.1-0.4,0.2-0.6,0.2-0.9c-1-14-5.3-27-12.7-38.9c-0.5-0.8-1.8-1.3-2.8-1.4c-5.6-0.1-11.2-0.1-16.8-0.1
	C741.2,323.1,736.1,323.1,731.2,323.1z M778.8,376.5c-14.6,0-28.9,0-42.8,0c-1.6,13.8-3.2,27.4-4.8,41c-0.1-0.1,0,0.1,0.2,0.1
	c10.8,0,21.6,0.1,32.3,0c0.8,0,2-0.8,2.4-1.6c2.5-4.7,5-9.4,7-14.3C776.5,393.7,778.3,385.3,778.8,376.5z M604,376.4
	c0,11.8,6,30.6,12.7,40c0.5,0.7,1.9,1.2,2.9,1.2c10.1,0.1,20.1,0.1,30.2,0c0.7,0,1.4-0.1,1.6-0.1c-1.6-13.8-3.2-27.4-4.8-41.1
	C632.6,376.4,618.4,376.4,604,376.4z M651.4,323.2c-0.1,0-0.4-0.1-0.7-0.1c-10.5,0-21-0.1-31.5,0.1c-1,0-2.4,0.9-2.8,1.8
	c-2.9,6.1-6,12.1-8.4,18.4c-2.5,6.6-3.8,13.6-4,20.8c14.6,0,28.9,0,42.8,0C648.2,350.4,649.8,336.9,651.4,323.2z M668.3,310.8
	c15.5,0,30.7,0,46.1,0c-3.2-8.4-6.6-16.4-12.9-22.8c-6.8-6.8-13.5-6.8-20.2,0C674.9,294.4,671.4,302.4,668.3,310.8z M714.3,429.9
	c-15.5,0-30.7,0-46.1,0c3.2,8.5,6.7,16.6,13.1,22.9c6.6,6.5,13.2,6.5,19.8,0C707.6,446.5,711.1,438.4,714.3,429.9z M716.6,286.3
	c3.4,7.8,6.7,15.7,10.2,23.4c0.3,0.7,1.6,1.2,2.5,1.2c8.2,0.1,16.4,0.1,24.6,0c0.5,0,1-0.1,1.8-0.2
	C744.5,298.9,731.5,290.8,716.6,286.3z M715.7,454.3c10.5-1,33.9-15.6,39.7-24.5c-9.1,0-18.1,0-27.1,0.1c-0.5,0-1.4,0.8-1.6,1.3
	C724,439.2,720.6,446.9,715.7,454.3z M666.3,286.3c-15.1,4.6-28.2,12.6-39.5,24.7c10,0,19.2,0,28,0
	C658.7,302.6,662.4,294.5,666.3,286.3z M666.5,454.6c0-0.5,0.1-0.7,0-0.8c-4.6-7-8-14.6-10.7-22.6c-0.2-0.7-1.6-1.3-2.4-1.3
	c-4.8-0.1-9.6-0.1-14.4-0.1c-3.9,0-7.8,0-12.3,0C638.1,441.9,651.1,449.9,666.5,454.6z"/>
<g>
	<path d="M927.4,61.2c1.2,17.5,2.6,35.1,3.6,52.6c0.6,10.7,1.3,21.5,0.8,32.2c-0.9,16.9-14.9,25.9-30,24.5
		c-19.3-1.7-33.6-15.7-36.6-35.1c-2.3-14.9,0.9-28.9,6.5-42.5c7.2-17.6,17.7-33.2,29.4-48c3.7-4.7,7.8-9.1,11.9-13.5
		c1.6-1.7,3.6-3,5.7-4c3.7-1.8,6.6-0.7,7.8,3.3c1,3.2,1.5,6.7,1.6,10c0.2,6.8,0.1,13.6,0.1,20.5C927.9,61.2,927.7,61.2,927.4,61.2z"
		/>
	<path d="M851.8,33.3c0,15.2-3.8,27.4-14.2,36.6c-9.9,8.8-21.4,12.2-34.4,8.8C792.6,76,784.8,67,784.5,56.1
		c-0.4-10.9,0-21.9,0.8-32.8c1.6-23.2,3.7-46.3,3-69.6c-0.1-4.1,0.3-8.3,1.1-12.3c1.2-5.6,5.1-7.2,9.8-3.9c3.7,2.6,7.2,5.7,10.1,9.2
		c12.4,14.7,23.5,30.3,31.9,47.7C847.3,7.3,851.7,20.5,851.8,33.3z"/>
	<path d="M937.4,132.8c1.4-22.3,2.9-44.6,4-66.9c0.5-9,0-18.1,0.1-27.2c0-2.4,0.5-4.8,1.1-7.1c1.4-5,4.9-6.4,9.2-3.6
		c3,1.9,5.9,4.2,8.2,6.9c16.5,19.2,31.2,39.6,39.9,63.7c4.9,13.4,7,27.3,3.4,41.4c-4.3,16.9-18.1,28.8-35.2,30.6
		c-17.4,1.8-30.7-10.1-30.9-27.6c0-3.4,0-6.8,0-10.2C937.4,132.8,937.4,132.8,937.4,132.8z"/>
	<path d="M774.1-31c1.2,17.3,2.5,34.5,3.5,51.8c0.6,11.9,1.5,23.9,0.8,35.7c-0.8,13.5-11.5,22.7-25.1,23.4c-19.8,1-37-12.9-41-33.1
		c-2.9-14.5-0.1-28.4,5.1-41.9c7.3-19,18.6-35.7,31.2-51.6c3.9-5,8.2-9.8,12.9-14c6.8-6,11.5-4.3,12.8,4.7
		c0.8,5.4,0.4,10.9,0.5,16.4c0,2.9,0,5.7,0,8.6C774.5-31,774.3-31,774.1-31z"/>
</g>
</svg>
